<svg width="64" height="64" viewBox="0 0 64 64" fill="none" xmlns="http://www.w3.org/2000/svg">
<path fill-rule="evenodd" clip-rule="evenodd" d="M45.5625 12.0142C51.6676 9.68287 57.4852 9.1743 63 10.5389C55.8656 10.8309 49.9723 12.0042 46.3849 14.8089C42.3485 21.7123 45.8804 40.5244 23.1753 41.0782C19.0329 49.3362 14.3153 55.2779 8.54313 57.005C10.1173 51.9193 18.4375 34.7085 23.0239 32.0398C17.2669 31.642 16.3789 30.2422 19.8957 27.936C8.37663 27.4828 5.84375 25.66 12.8319 22.518C4.19384 20.8009 1.14127 16.828 5.43001 15.2973C1.52978 12.3869 0.268388 8.31829 1.41878 5C8.48258 11.7927 18.9622 14.2348 29.1341 20.3981C31.9748 10.987 38.7812 8.1622 45.5625 12.0142ZM39.5078 12.7141C39.4592 12.7089 39.4101 12.7089 39.3615 12.7141C39.5018 12.6614 39.6505 12.6341 39.8005 12.6336C40.0917 12.6325 40.374 12.7341 40.5975 12.9205C40.8211 13.1068 40.9715 13.366 41.0222 13.6522C41.073 13.9384 41.0209 14.2334 40.875 14.485C40.7292 14.7366 40.499 14.9287 40.225 15.0275C39.9511 15.1263 39.651 15.1253 39.3777 15.0248C39.1044 14.9244 38.8754 14.7308 38.7311 14.4783C38.5869 14.2258 38.5366 13.9305 38.5891 13.6446C38.6417 13.3587 38.7937 13.1005 39.0184 12.9156C38.9033 13.0363 38.8399 13.1971 38.8418 13.3637C38.8418 13.4952 38.8809 13.6237 38.954 13.733C39.0272 13.8423 39.1312 13.9275 39.2529 13.9778C39.3746 14.0281 39.5085 14.0412 39.6377 14.0156C39.7669 13.99 39.8856 13.9267 39.9788 13.8337C40.0719 13.7407 40.1353 13.6223 40.161 13.4934C40.1867 13.3644 40.1735 13.2308 40.1231 13.1094C40.0727 12.9879 39.9874 12.8841 39.8778 12.8111C39.7683 12.738 39.6395 12.699 39.5078 12.699V12.7141Z" fill="#F24849"/>
</svg>
